<svg xmlns="http://www.w3.org/2000/svg" width="22" height="22" viewBox="0 0 22 22">
  <g id="Group_5089" data-name="Group 5089" transform="translate(-505 -125)">
    <circle id="Ellipse_493" data-name="Ellipse 493" cx="11" cy="11" r="11" transform="translate(505 125)" fill="#00a3e1"/>
    <path id="chevron-left-regular" d="M7.046,45.387l.487-.487a.3.3,0,0,0,0-.417L3.09,40.03l4.443-4.454a.3.3,0,0,0,0-.417l-.487-.487a.3.3,0,0,0-.417,0L1.48,39.821a.3.3,0,0,0,0,.417l5.149,5.149A.3.3,0,0,0,7.046,45.387Z" transform="translate(476.415 141.619) rotate(-90)" fill="#fff"/>
  </g>
</svg>
